/vscmnt/brussel_pixiu_data/_data_brussel/112/vsc11236/PredSimResults/SUBJ04mtu3D/worker5.mot
version=1
nRows=9
nColumns=50
inDegrees=yes
endheader
                time	         pelvis_tilt	         pelvis_list	     pelvis_rotation	           pelvis_tx	           pelvis_ty	           pelvis_tz	       hip_flexion_r	     hip_adduction_r	      hip_rotation_r	        knee_angle_r	       ankle_angle_r	         mtp_angle_r	       hip_flexion_l	     hip_adduction_l	      hip_rotation_l	        knee_angle_l	       ankle_angle_l	         mtp_angle_l	    lumbar_extension	      lumbar_bending	     lumbar_rotation	 ercspn_r/activation	 intobl_r/activation	 extobl_r/activation	    abd_r/activation	    add_r/activation	hamstrings_r/activation	bifemsh_r/activation	glut_max_r/activation	iliopsoas_r/activation	rect_fem_r/activation	  vasti_r/activation	gastroc_r/activation	 soleus_r/activation	tib_ant_r/activation	 ercspn_l/activation	 intobl_l/activation	 extobl_l/activation	    abd_l/activation	    add_l/activation	hamstrings_l/activation	bifemsh_l/activation	glut_max_l/activation	iliopsoas_l/activation	rect_fem_l/activation	  vasti_l/activation	gastroc_l/activation	 soleus_l/activation	tib_ant_l/activation	
          2.06672392	         -1.55381702	         -1.21035372	         -6.76725942	          1.94272048	          0.87943478	          0.00626478	        -14.26257468	          0.13121500	         -5.84282635	         -8.12090337	         12.06515119	         23.53294095	         27.47148983	         -2.90648028	         -5.97296092	         -6.61768594	          5.40276499	          0.22732249	        -14.82573235	          5.90166243	          0.67419368	          0.01000002	          0.01051180	          0.01228972	          0.03427177	          0.01000059	          0.03941085	          0.20554928	          0.01528060	          0.01000003	          0.01000002	          0.01000002	          0.38318060	          0.23794969	          0.01469489	          0.01000003	          0.07328008	          0.06810646	          0.01177135	          0.14062008	          0.12319314	          0.18964745	          0.04956460	          0.10798634	          0.01000002	          0.01000000	          0.02811140	          0.01533203	          0.23985283	
          2.08050208	         -1.55525873	         -1.07441190	         -6.62984368	          1.95914190	          0.87751219	          0.00634989	        -14.98025448	         -0.10942276	         -6.34616227	         -8.83541135	         11.65145870	         25.06379499	         27.25819614	         -2.68983652	         -6.02334301	         -8.06419958	          4.90547934	          0.22592746	        -14.42819949	          4.99714825	          0.57228626	          0.01000005	          0.01000000	          0.01000002	          0.02787148	          0.01000004	          0.03205097	          0.16716279	          0.01242693	          0.01000069	          0.01000002	          0.01000000	          0.36404396	          0.22842410	          0.01195061	          0.01000005	          0.06538810	          0.05538750	          0.03865840	          0.12070622	          0.10701130	          0.15423063	          0.08088368	          0.08781976	          0.01000001	          0.00999999	          0.02286156	          0.01246876	          0.30456990	
          2.09428024	         -1.54848544	         -0.92864825	         -6.44162907	          1.97586651	          0.87599554	          0.00634868	        -15.57293767	         -0.36810309	         -6.88845421	         -9.80771105	         11.04626876	         26.67359292	         26.94377181	         -2.46931371	         -6.10987466	         -9.29250181	          4.20802487	          0.20911588	        -14.00411666	          4.06270065	          0.47253829	          0.03038141	          0.01000000	          0.01000000	          0.02266645	          0.01000001	          0.02606557	          0.13594497	          0.01010619	          0.01512122	          0.01000009	          0.01000000	          0.33938582	          0.21522064	          0.01000001	          0.02744644	          0.05317680	          0.04504382	          0.07576371	          0.14705571	          0.08702684	          0.12542789	          0.09944204	          0.07141932	          0.01000008	          0.01000039	          0.01859215	          0.01014022	          0.33529596	
          2.10805840	         -1.53477690	         -0.78791281	         -6.19847292	          1.99266571	          0.87507379	          0.00623967	        -15.95347679	         -0.63778797	         -7.47071159	        -11.16001484	         10.22066050	         28.35080657	         26.64109420	         -2.25790082	         -6.26535080	        -10.56837056	          3.58796104	          0.19126635	        -13.58182869	          3.12090875	          0.37260198	          0.05736814	          0.01000000	          0.01000000	          0.01843346	          0.01000005	          0.02119917	          0.11055710	          0.01000002	          0.01229733	          0.01000005	          0.01000002	          0.30796834	          0.19726614	          0.01000000	          0.02232123	          0.04324598	          0.03663183	          0.11021504	          0.19002203	          0.07771301	          0.10200411	          0.08665463	          0.05808168	          0.01000003	          0.02789293	          0.01512005	          0.01000001	          0.36753471	
          2.12183656	         -1.51601530	         -0.64865424	         -5.91194205	          2.00942686	          0.87481359	          0.00601868	        -16.06273773	         -0.93563718	         -8.08775892	        -12.97610040	          9.18120324	         30.03640830	         26.35011191	         -2.04879993	         -6.44470096	        -11.89772633	          3.14502077	          0.17166521	        -13.17074081	          2.17432174	          0.27965675	          0.07774557	          0.01000001	          0.01000000	          0.01499099	          0.03246252	          0.03780039	          0.08991044	          0.01229635	          0.01000081	          0.01000003	          0.01172436	          0.26166871	          0.17316302	          0.01000000	          0.01859159	          0.03516974	          0.02979080	          0.13491408	          0.21361958	          0.07670898	          0.08295474	          0.07540701	          0.04723486	          0.01000003	          0.05218855	          0.01229638	          0.01000007	          0.37050564	
          2.13561472	         -1.49374599	         -0.51423996	         -5.59009135	          2.02606952	          0.87521459	          0.00569528	        -15.86978129	         -1.26750447	         -8.74779088	        -15.29596725	          7.95655272	         31.58864684	         26.02226434	         -1.83281926	         -6.59267185	        -13.18761426	          2.90850552	          0.15482161	        -12.77673763	          1.23152873	          0.19595233	          0.08301077	          0.01000005	          0.01000000	          0.01219141	          0.10132936	          0.04425616	          0.07311958	          0.01000008	          0.01000005	          0.01000002	          0.01153501	          0.21280177	          0.14082464	          0.01000000	          0.01511969	          0.02860175	          0.02422733	          0.15102893	          0.23307981	          0.07845853	          0.06746288	          0.07547398	          0.03841369	          0.01000002	          0.08063947	          0.01000015	          0.01000009	          0.36457973	
          2.14939288	         -1.46967853	         -0.39417644	         -5.23701005	          2.04249625	          0.87624137	          0.00529547	        -15.34764669	         -1.63315298	         -9.46328414	        -18.15501909	          6.61816323	         32.75031390	         25.59615375	         -1.60946334	         -6.68078352	        -14.31016683	          2.84885395	          0.14307037	        -12.40874083	          0.30519253	          0.11639392	          0.08585665	          0.01859199	          0.01000001	          0.01000000	          0.12355642	          0.05248501	          0.05946443	          0.01000001	          0.01000006	          0.01000001	          0.01000001	          0.17306079	          0.11452548	          0.01000000	          0.01229616	          0.02326035	          0.01970285	          0.16334885	          0.23953344	          0.08290380	          0.05486414	          0.06998488	          0.03123989	          0.01000002	          0.09890672	          0.01000014	          0.01000010	          0.34862519	
          2.16317104	         -1.44443555	         -0.29898347	         -4.85933913	          2.05863049	          0.87779643	          0.00484268	        -14.49472992	         -2.03588648	        -10.25100727	        -21.54192351	          5.25379859	         33.21114975	         25.04632889	         -1.38867253	         -6.70409523	        -15.20661247	          2.92462917	          0.13671734	        -12.07429058	         -0.58975702	          0.03475212	          0.08277258	          0.01511998	          0.01000002	          0.01000000	          0.13786357	          0.05555271	          0.04835944	          0.01000000	          0.01000008	          0.01000001	          0.01000000	          0.14074148	          0.09313771	          0.01000000	          0.01000014	          0.01891646	          0.01602333	          0.16744131	          0.23463429	          0.08727768	          0.04461824	          0.06758354	          0.02540580	          0.01000001	          0.11054712	          0.01000005	          0.01000002	          0.33078003	
          2.17694920	         -1.41777851	         -0.24154819	         -4.46078301	          2.07444319	          0.87977627	          0.00435974	        -13.34033340	         -2.47955861	        -11.12524728	        -25.39993688	          3.90840845	         32.75374537	         24.37142237	         -1.18898835	         -6.67745738	        -15.86902330	          3.11373362	          0.13739504	        -11.77587841	         -1.43651119	         -0.05573807	          0.08453698	          0.01229633	          0.01000002	          0.00999999	          0.14292129	          0.04735773	          0.04077423	          0.01000000	          0.01000017	          0.01000000	          0.00999999	          0.11445784	          0.07574413	          0.01000000	          0.01000010	          0.01538380	          0.01303096	          0.16598411	          0.21598762	          0.09268036	          0.03628577	          0.07097418	          0.02066124	          0.01000001	          0.12228692	          0.01000008	          0.01000003	          0.30505163	
